<svg xmlns="http://www.w3.org/2000/svg" viewBox="0 0 96 112" fill="none">
  <defs>
    <radialGradient id="ink"><stop stop-color="#1c3335"/><stop offset="1" stop-color="#081013"/></radialGradient>
    <linearGradient id="brass" x1="0" y1="0" x2="1" y2="1"><stop stop-color="#f3d99a"/><stop offset=".45" stop-color="#a57630"/><stop offset=".7" stop-color="#e0b666"/><stop offset="1" stop-color="#6c4923"/></linearGradient>
    <linearGradient id="glass" x1="0" y1="0" x2="1" y2="0"><stop stop-color="#186674"/><stop offset=".35" stop-color="#a6f6dd"/><stop offset=".55" stop-color="#4fc6bb"/><stop offset="1" stop-color="#135766"/></linearGradient>
  </defs>
  <g stroke="url(#brass)" stroke-width="1.2">
    <path d="M48 1v15m-5-8 5-6 5 6M48 93v17m-6-7 6 6 6-6M8 50H1m94 0h-7"/>
    <path d="M19 19c-2-10 9-14 12-8s-4 8-6 4m40 4c2-10-9-14-12-8s4 8 6 4M16 82c-8 7-1 18 5 15s2-9-2-7m58-8c8 7 1 18-5 15s-2-9 2-7"/>
    <path d="m16 27-7-2 3 8-7 5 5 5-5 8 6 5-4 8 8 3-2 9 9 1 4 8 9-1 5 9 8-4 8 4 5-9 9 1 4-8 9-1-2-9 8-3-4-8 6-5-5-8 5-5-7-5 3-8-7 2-4-8-9 2-6-6-7 3-7-3-6 6-9-2z"/>
    <circle cx="48" cy="53" r="36" fill="url(#ink)" stroke-width="2.2"/>
    <circle cx="48" cy="53" r="32" stroke-width=".7"/>
    <path d="M14 54a34 34 0 0 1 57-25M80 49a32 32 0 0 1-38 35" stroke="#eac97e" stroke-width=".6"/>
  </g>
  <path d="M43 34h10v5h-2v14c0 5 9 18 9 22 0 4-24 4-24 0 0-4 9-17 9-22V39h-2z" fill="#103c43" stroke="#94d7ce" stroke-width="1.1"/>
  <path d="M45 53h6c1 7 7 18 7 21 0 2-20 2-20 0 0-3 6-14 7-21z" fill="url(#glass)"/>
  <path d="M45 41v11l-6 20m9-31v12" stroke="#e8fff2" stroke-width="1.2"/>
  <path d="M42 34h12m-12-2h12" stroke="#e1bf77" stroke-width="1.6"/>
  <path d="M37 76q11 4 22 0" stroke="#d2fff1" stroke-width="1"/>
  <circle cx="47" cy="64" r="1.2" fill="#e0ffee"/><circle cx="51" cy="70" r=".8" fill="#e0ffee"/>
</svg>
